**ABCDEFGHIJKLMNOPQRSTUVWXYZabcdefghijklmnopqrstuvwxyz**************************
**PARASOLID !"#$%&'()*+,-./:;<=>?@[\]^_`{|}~0123456789**************************
**PART1;
MC=AMD64;
MC_MODEL=Intel64 Family 6 Model 140 Stepping 1, GenuineIntel;
MC_ID=unknown;
OS=Windows_NT;
OS_RELEASE=unknown;
FRU=Parasolid Version 36.1, build 212,  6-28-2024;
APPL=SOLIDWORKS 2025-2025036;
SITE=;
USER=unknown;
FORMAT=text;
GUISE=transmit;
KEY=bracket_for ansys 1;
FILE=bracket_for ansys 1.x_t;
DATE=Mon Jun  1 12:13:47 2026;
**PART2;
SCH=SCH_3601212_36001;
USFLD_SIZE=0;
**PART3;
**END_OF_HEADER*****************************************************************
T51 : TRANSMIT FILE created by modeller version 360121223 SCH_3601212_36001_1300
6231 0 12 36 CCCI7 lattice222 0 CCCI4 mesh1006 0 I8 polyline1008 0 CCCCCCCDI5 ow
ner1040 0 CCCI16 boundary_lattice222 0 CCCI13 boundary_mesh1006 0 I17 boundary_p
olyline1008 0 CCCA16 index_map_offset0 0 1 dA9 index_map82 0 A17 node_id_index_m
ap82 0 A20 schema_embedding_map82 0 A5 child12 0 A14 lowest_node_id0 0 1 dA16 me
sh_offset_data206 0 Z1 649 2 3 0 0 0 0 0 0 0 1e3 1e-8 0 4 0 1 0 1 1 5 0 6 7 8 0
 0 9 10 11 0 0 0 0 0 0 0 81 255 2 2 623 12 1 13 0 0 0 0 14 70 11 CI9 list_type0
 0 1 uI10 notransmit0 0 1 lCCCDCCDI12 finger_index0 0 1 dI12 finger_block1012 0
 CZ3 0 4 T1 0 0 11 20 1 15 15 13 255 5 141 0 1 0 16 0 0 17 0 51 255 6 444 0 18 1
9 0 0 +35e-5 35e-5 .00125 0 0 1 1e-4 1 0 0 31 255 7 425 0 10 20 0 0 +35e-5 35e-5
 .00125 0 0 -1 -1 0 0 1e-4 29 255 8 407 0 11 21 0 35e-5 25e-5 .00125 19 9 CCCCCC
I5 frame230 0 CA5 owner12 0 Z9 47 0 1 17 0 22 0 V0 16 255 10 419 0 ?23 0 24 7 0
 0 1 18 255 11 405 0 25 0 26 8 ?1 17 255 25 0 27 28 29 11 30 31 0 32 +18 26 402
 0 33 11 34 21 ?1 17 33 0 35 36 37 26 38 24 0 29 +18 34 393 0 23 26 39 40 ?1 29
 21 404 0 26 40 8 35e-5 25e-5 -.00125 29 40 395 0 34 41 21 25e-5 35e-5 .00125 29
 41 392 0 39 42 40 25e-5 35e-5 -.00125 18 39 390 0 38 34 43 41 ?1 29 42 105 0 44
 45 41 0 0 -.00125 18 44 92 0 46 47 48 42 ?1 29 45 106 0 48 49 42 0 .003 -.00125
 18 48 93 0 50 44 51 45 ?1 29 49 107 0 51 52 45 25e-5 .003 -.00125 18 51 94 0 53
 48 54 49 ?1 29 52 109 0 54 55 49 .0025 25e-5 -.00125 18 54 96 0 56 51 57 52 ?1
 29 55 110 0 57 58 52 .0025 1532745576566625e-34 -.00125 18 57 97 0 59 54 0 55 ?
1 29 58 46 0 43 60 55 0 0 .00125 18 43 44 0 61 39 62 58 ?1 29 60 43 0 62 63 58 0
 .003 .00125 18 62 41 0 64 43 65 60 ?1 29 63 40 0 65 66 60 25e-5 .003 .00125 18
 65 38 0 67 62 68 63 ?1 29 66 34 0 68 69 63 .0025 25e-5 .00125 18 68 32 0 70 65
 47 66 ?1 29 69 31 0 47 0 66 .0025 1532745576566625e-34 .00125 18 47 29 0 71 68
 44 69 ?1 17 71 0 72 73 74 47 70 75 0 76 -15 255 72 125 0 56 77 0 17 73 0 72 56
 71 57 78 79 0 80 +17 74 0 72 71 56 68 81 82 0 28 -17 70 0 83 32 76 68 71 75 0 7
4 +16 75 9 0 ?70 84 85 86 0 0 1 17 76 0 83 70 61 47 87 85 0 78 +15 83 4 0 76 88
 0 17 61 0 83 76 64 43 89 90 0 91 +17 87 0 92 93 78 43 76 85 0 0 -16 85 5 0 ?76
 75 94 95 0 0 1 17 78 0 92 87 80 47 73 79 0 0 -15 92 127 0 80 16 0 17 80 0 92 78
 93 57 96 97 0 0 +16 79 116 0 ?73 98 82 99 0 0 1 16 98 396 0 ?100 31 79 101 0 0
 1 16 82 115 0 ?81 79 102 103 0 0 1 30 255 99 140 0 79 103 101 0 +.0025 15327455
76566625e-34 .00125 0 0 -1 30 103 139 0 82 104 99 0 +.0025 25e-5 .00125 0 0 -1 3
0 101 398 0 98 99 105 0 +25e-5 35e-5 -.00125 0 0 -1 30 105 410 0 31 101 20 0 -35
e-5 25e-5 .00125 0 0 -1 16 31 408 0 ?25 24 98 105 0 0 1 31 20 424 0 24 105 7 0 -
35e-5 35e-5 -.00125 0 0 -1 -1 0 0 1e-4 16 24 414 0 ?33 10 31 20 0 0 1 30 104 137
 0 102 106 103 0 +25e-5 .003 .00125 0 0 -1 16 102 113 0 ?107 82 108 104 0 0 1 30
 106 136 0 108 109 104 0 +0 .003 .00125 0 0 -1 16 108 112 0 ?110 102 111 106 0 0
 1 30 109 135 0 111 112 106 0 +0 0 .00125 0 0 -1 16 111 111 0 ?93 108 90 109 0 0
 1 30 112 99 0 94 113 109 0 +0 0 -.00125 0 -1 0 16 94 68 0 ?46 85 114 112 0 0 1
 30 113 100 0 114 115 112 0 +0 .003 -.00125 -1 0 0 16 114 72 0 ?50 94 116 113 0
 0 1 30 115 101 0 116 117 113 0 +25e-5 .003 -.00125 -3942553354492745e-32 1 0 16
 116 391 0 ?53 114 118 115 0 0 1 30 117 102 0 118 119 115 0 +25e-5 25e-5 -.00125
 -1 -72280144832367e-30 0 16 118 80 0 ?29 116 120 117 0 0 1 30 119 103 0 120 121
 117 0 +.0025 25e-5 -.00125 0 1 0 16 120 84 0 ?56 118 97 119 0 0 1 30 121 104 0
 97 122 119 0 +.0025 1532745576566625e-34 -.00125 1 61309823062665e-30 0 16 97 8
8 0 ?80 120 123 121 0 0 1 30 122 27 0 90 124 121 0 +0 0 .00125 0 -1 0 16 90 25 0
 ?61 111 125 122 0 0 1 30 124 23 0 125 126 122 0 +0 .003 .00125 -1 0 0 16 125 21
 0 ?64 90 127 124 0 0 1 30 126 19 0 127 128 124 0 +25e-5 .003 .00125 -3942553354
492745e-32 1 0 16 127 394 0 ?67 125 84 126 0 0 1 30 128 15 0 84 86 126 0 +25e-5
 25e-5 .00125 -1 -72280144832367e-30 0 16 84 13 0 ?32 127 75 128 0 0 1 30 86 11
 0 75 95 128 0 +.0025 25e-5 .00125 0 1 0 30 95 7 0 85 129 86 0 +.0025 1532745576
566625e-34 .00125 1 61309823062665e-30 0 31 129 273 0 130 131 95 0 +0 .0015 0 -1
 0 0 0 0 1 15e-5 16 130 247 0 ?132 133 134 129 0 0 1 31 131 274 0 134 135 129 0
 -25e-5 .0015 0 -1 -3942553354492745e-32 0 3942553354492745e-32 -1 0 15e-5 16 13
4 250 0 ?136 130 137 131 0 0 1 31 135 275 0 123 138 131 0 -25e-5 .00225 0 -1 -39
42553354492745e-32 0 3942553354492745e-32 -1 0 15e-5 16 123 233 0 ?139 97 133 13
5 0 0 1 31 138 276 0 133 140 135 0 +0 .00225 0 -1 0 0 0 0 1 15e-5 16 133 230 0 ?
141 123 130 138 0 0 1 31 140 369 0 142 143 138 0 +.002 12261964612533e-32 0 6130
9823062665e-30 -1 0 1 61309823062665e-30 0 15e-5 16 142 343 0 ?144 145 146 140 0
 0 1 31 143 370 0 146 147 140 0 -.002 25e-5 0 72280144832367e-30 -1 0 1 72280144
832367e-30 0 15e-5 16 146 346 0 ?148 142 0 143 0 0 1 31 147 371 0 137 149 143 0
 -.001 25e-5 0 72280144832367e-30 -1 0 1 72280144832367e-30 0 15e-5 16 137 329 0
 ?150 134 145 147 0 0 1 31 149 372 0 145 0 147 0 +.001 61309823062665e-33 0 6130
9823062665e-30 -1 0 1 61309823062665e-30 0 15e-5 16 145 326 0 ?151 137 142 149 0
 0 1 17 151 0 152 151 151 0 153 145 0 0 +15 152 333 0 151 154 155 17 153 0 156 1
53 153 0 151 145 0 0 -15 156 319 0 153 16 157 14 255 16 128 158 ?77 0 156 5 19 -
0 0 77 0 22 15 157 312 0 159 16 92 17 159 0 157 159 159 0 144 142 0 0 -17 144 0
 160 144 144 0 159 142 0 0 +15 160 350 0 144 161 162 14 161 347 163 ?154 164 160
 5 165 -0 0 154 164 22 15 162 351 0 148 161 0 17 148 0 162 148 148 0 166 146 0 0
 +17 166 0 167 166 166 0 148 146 0 0 -15 167 298 0 166 168 27 14 168 124 169 ?17
0 77 171 5 172 -0 0 170 77 22 15 27 123 0 29 168 0 17 29 0 27 25 81 26 36 118 0
 30 +17 81 0 27 29 28 54 74 82 0 36 +17 36 0 35 59 33 54 29 118 0 0 -17 30 0 173
 38 174 26 25 31 0 0 -15 173 433 0 174 18 0 17 38 0 173 175 30 39 33 24 0 100 -1
7 174 0 173 30 175 11 23 10 0 0 -17 175 0 173 174 38 34 100 98 0 0 -17 23 0 83 6
7 32 34 174 10 0 176 +17 67 0 83 64 23 65 176 127 0 177 +17 32 0 83 23 70 11 28
 84 0 174 +17 176 0 178 100 177 34 67 127 0 175 -15 178 121 0 176 170 0 17 100 0
 178 53 176 39 175 98 0 37 +17 177 0 178 176 53 65 107 102 0 179 -17 53 0 178 17
7 100 51 37 116 0 107 +17 107 0 180 50 179 51 177 102 0 181 +17 179 0 180 107 18
2 65 64 125 0 0 -15 180 119 0 50 183 0 17 182 0 180 179 50 62 110 108 0 89 -17 6
4 0 83 61 67 62 179 125 0 182 +17 50 0 180 182 107 48 181 114 0 110 +17 110 0 18
4 46 89 48 182 108 0 185 +17 89 0 184 110 91 62 61 90 0 0 -15 184 117 0 46 186 0
 17 91 0 184 89 46 43 93 111 0 87 -17 46 0 184 91 110 44 185 94 0 93 +17 93 0 92
 80 87 44 91 111 0 96 +17 96 0 35 185 59 44 80 97 0 0 -15 35 67 0 96 187 0 17 18
5 0 35 181 96 48 46 94 0 0 -17 59 0 35 96 36 57 56 120 0 73 -17 56 0 72 74 73 54
 59 120 0 81 +17 181 0 35 37 185 51 50 114 0 0 -17 37 0 35 33 181 39 53 116 0 0
 -14 187 66 188 ?189 88 35 5 190 +0 0 189 88 22 81 1 188 631 191 187 192 0 169 1
93 194 14 189 251 193 ?164 187 195 5 196 -0 0 164 187 22 14 88 1 197 ?187 186 83
 5 198 -0 0 187 186 22 50 255 190 98 0 187 198 199 0 +0 0 -.00125 0 0 -1 -1 0 0
 13 22 48 0 0 0 0 0 0 9 16 50 198 3 0 88 196 190 0 +0 0 .00125 0 0 -1 -1 0 0 50
 199 129 0 186 190 200 0 +0 0 .00125 1 0 0 0 0 -1 14 186 118 201 ?88 183 202 5 1
99 -0 0 88 183 22 50 200 130 0 183 199 203 0 +0 .003 .00125 0 -1 0 0 0 -1 14 183
 120 204 ?186 170 180 5 200 -0 0 186 170 22 50 203 131 0 170 200 172 0 +25e-5 .0
03 .00125 -1 -3942553354492745e-32 0 3942553354492745e-32 -1 0 14 170 122 205 ?1
83 168 206 5 203 -0 0 183 168 22 50 172 132 0 168 203 207 0 +25e-5 25e-5 .00125
 72280144832367e-30 -1 0 1 72280144832367e-30 0 50 207 133 0 77 172 19 0 +.0025
 25e-5 .00125 -1 0 0 0 0 1 14 77 126 208 ?168 16 72 5 207 -0 0 168 16 22 50 19 1
34 0 16 207 6 0 +.0025 1532745576566625e-34 .00125 -61309823062665e-30 1 0 -1 -6
1309823062665e-30 0 81 1 208 643 191 77 209 0 205 210 211 80 7 CCCCCDI12 legal_o
wners0 17 1 lCZ1 191 212 213 9000 1 1 1 1 1 1 1 1 0 FFFFTFTFFFFFFFFFF1 81 3 209
 642 214 77 215 208 216 217 218 0 0 81 1 205 641 191 170 216 0 204 208 219 81 1
 210 645 191 18 217 0 208 220 221 82 255 1 211 -1634598776 14 18 432 210 ?0 154
 173 5 6 -0 0 0 154 22 81 3 217 644 214 18 222 210 209 223 224 0 0 81 1 220 647
 191 154 223 0 210 225 226 82 1 221 -1481244530 14 154 330 220 ?18 161 152 5 227
 -0 0 18 161 22 81 3 223 646 214 154 228 220 217 229 230 0 0 81 1 225 649 191 16
4 229 0 220 0 231 82 1 226 -1516699507 14 164 234 225 ?161 189 232 5 233 -0 0 16
1 189 22 81 3 229 648 214 164 234 225 223 0 235 0 0 82 1 231 -1583873909 80 3 21
4 236 237 9000 0 0 0 0 3 5 0 0 0 FFFFTFFFFFFFFFFFF1 1 1 81 1 234 579 238 164 0 2
29 239 240 241 82 6 235 0 -1175917562 31256979 0 0 0 80 1 238 0 242 8001 0 0 0 0
 3 5 0 0 0 FFFFTFTFFFFFFFFFF2 81 1 239 578 238 189 0 243 244 234 245 81 1 240 58
0 238 161 0 246 234 228 247 83 255 3 241 .792156862745098 .819607843137255 .9333
33333333333 81 3 246 626 214 161 240 163 248 249 250 0 0 81 1 228 581 238 154 0
 223 240 222 251 83 3 247 .792156862745098 .819607843137255 .933333333333333 81
 1 222 582 238 18 0 217 228 0 252 83 3 251 .792156862745098 .819607843137255 .93
3333333333333 83 3 252 .792156862745098 .819607843137255 .933333333333333 81 1 1
63 627 191 161 246 0 158 169 253 81 3 248 624 214 16 254 158 0 246 255 0 0 81 3
 249 628 214 168 256 169 246 192 257 0 0 82 6 250 0 -1175709855 31256979 0 0 0 8
1 1 256 572 238 168 0 249 215 258 259 81 1 169 629 191 168 249 0 163 188 260 81
 3 192 630 214 187 244 188 249 243 261 0 0 82 6 257 0 -1175649523 31256979 0 0 0
 81 1 244 577 238 187 0 192 262 239 263 81 3 243 632 214 189 239 193 192 264 265
 0 0 82 6 261 0 -1175649523 31256979 0 0 0 81 1 193 633 191 189 243 0 188 197 26
6 81 3 264 634 214 88 262 197 243 267 268 0 0 82 6 265 0 -1175917562 31256979 0
 0 0 81 1 262 576 238 88 0 264 269 244 270 81 1 197 635 191 88 264 0 193 201 271
 81 3 267 636 214 186 269 201 264 272 273 0 0 82 6 268 0 -1175649523 31256979 0
 0 0 81 1 269 575 238 186 0 267 274 262 275 81 1 201 637 191 186 267 0 197 204 2
76 81 3 272 638 214 183 274 204 267 216 277 0 0 82 6 273 0 -1175917562 31256979
 0 0 0 81 1 274 574 238 183 0 272 258 269 278 81 1 204 639 191 183 272 0 201 205
 279 81 3 216 640 214 170 258 205 272 209 280 0 0 82 6 277 0 -1175917562 3125697
9 0 0 0 81 1 258 573 238 170 0 216 256 274 281 82 6 280 0 -1175649523 31256979 0
 0 0 83 3 281 .792156862745098 .819607843137255 .933333333333333 82 1 279 -16353
85208 83 3 278 .792156862745098 .819607843137255 .933333333333333 82 1 276 -1635
647349 83 3 275 .792156862745098 .819607843137255 .933333333333333 82 1 271 -164
4953458 83 3 270 .792156862745098 .819607843137255 .933333333333333 82 1 266 -15
64999541 83 3 263 .792156862745098 .819607843137255 .933333333333333 82 1 260 -1
634860914 81 1 215 571 238 77 0 209 254 256 282 83 3 259 .792156862745098 .81960
7843137255 .933333333333333 81 1 254 570 238 16 0 248 0 215 283 83 3 282 .792156
862745098 .819607843137255 .933333333333333 83 3 283 .792156862745098 .819607843
137255 .933333333333333 81 1 158 625 191 16 248 0 0 163 284 82 6 255 0 -11757098
55 31256979 0 0 0 82 1 284 -1634336627 82 1 253 -1495203699 83 3 245 .7921568627
45098 .819607843137255 .933333333333333 79 255 15 242 SDL/TYSA_COLOUR79 18 237 D
OWNSTREAM_FACE_ID15 232 237 0 141 164 285 51 233 270 0 164 165 196 0 +.002501 .0
0225 0 -1 0 0 15e-5 0 0 1 51 165 365 0 161 227 233 0 +.002 .003001 0 61309823062
665e-30 -1 0 15e-5 1 61309823062665e-30 0 51 196 269 0 189 233 198 0 +.002501 .0
015 0 -1 0 0 15e-5 0 0 1 51 227 366 0 154 0 165 0 +.001 .003001 0 61309823062665
e-30 -1 0 15e-5 1 61309823062665e-30 0 17 141 0 232 141 141 0 286 133 0 0 +15 28
5 238 0 139 164 0 17 139 0 285 139 139 0 287 123 0 0 +17 287 0 206 287 287 0 139
 123 0 0 -15 206 223 0 287 170 288 15 288 216 0 289 170 178 17 289 0 288 289 289
 0 136 134 0 0 -17 136 0 290 136 136 0 289 134 0 0 +15 290 255 0 136 189 0 17 28
6 0 202 286 286 0 141 133 0 0 -15 202 209 0 286 186 291 15 291 202 0 292 186 184
 17 292 0 291 292 292 0 132 130 0 0 -17 132 0 195 132 132 0 292 130 0 0 +15 195
 254 0 132 189 290 82 6 230 0 -1175709855 31256979 0 0 0 82 6 224 0 -1175649523
 31256979 0 0 0 82 1 219 -1635123058 82 6 218 0 -1175917562 31256979 0 0 0 79 14
 213 SWEntUnchanged82 1 194 -1636958066 17 28 0 27 81 25 68 32 84 0 0 -15 171 30
5 0 293 168 167 17 293 0 171 293 293 0 150 137 0 0 -17 150 0 155 150 150 0 293 1
37 0 0 +15 155 334 0 150 154 0 19 17 142 0 1 0 9 5 0 S0 74 4 CI16 index_map_offs
et0 0 1 dCCZ20 15 11 0 0 229 294 295 296 225 297 298 299 13 222 2 0 0 0 0 0 0 0
 0 0 81 2 294 182 300 1 0 295 0 0 0 301 81 2 295 186 302 1 294 296 0 0 0 303 81
 2 296 187 304 1 295 297 0 0 305 0 81 1 297 458 306 1 296 298 0 0 307 81 2 298 4
74 308 1 297 299 0 0 309 0 81 2 299 519 310 1 298 13 0 0 0 311 81 2 13 522 312 1
 299 2 0 0 0 0 80 2 312 313 314 9000 0 0 0 0 3 5 0 0 0 FFTFFFFFFFFFFFFFF9 1 79 1
6 314 BODY_RECIPE_200180 2 310 315 316 9000 0 0 0 0 3 5 0 0 0 FFTFFFFFFFFFFFFFF9
 1 82 1 311 1 79 24 316 BODY_IN_LIGHTWEIGHT_PERM80 2 308 317 318 8004 0 0 0 0 3
 5 0 0 0 FFTFFFFFFFFFFFFFF2 3 83 1 309 1 79 16 318 SDL/TYSA_DENSITY80 1 306 319
 320 9000 1 1 1 1 1 1 1 1 0 FFTFFFFFFFFFFFFFF1 82 1 307 892402 79 10 320 BODY_MA
TCH80 2 304 321 322 9000 0 0 0 0 3 5 0 0 0 FFTFTTTFFTFFFFFFF10 10 98 255 7 305 7
0 105 108 108 101 116 49 79 23 322 SWIMPLICITBODYNAME_ID_U80 2 302 323 324 9000
 0 0 0 0 3 5 0 0 0 FFTFFFFFFFFFFFFFF9 1 82 1 303 80 79 30 324 LAST_BODY_MODIFYIN
G_FEATURE_ID80 2 300 325 326 9000 0 0 0 0 3 5 0 0 0 FFTFFFFFFFFFFFFFF9 1 82 1 30
1 131 79 19 326 ENT_TIME_STAMP_200180 2 12 327 328 9000 0 0 0 0 3 5 0 0 0 FFTFFF
FFFFFFFFFFF9 1 82 1 14 103 79 12 328 ATOM_ID_20011 0 
